<svg width="63" height="63" viewBox="0 0 63 63" fill="none" xmlns="http://www.w3.org/2000/svg">
<circle cx="31.5" cy="31.5" r="31.5" fill="#9674F9"/>
<path d="M32 46.8334C23.2758 46.8334 16.1666 39.7242 16.1666 31.0001C16.1666 22.2759 23.2758 15.1667 32 15.1667C40.7241 15.1667 47.8333 21.5634 47.8333 29.4167C47.8333 34.6576 43.5741 38.9167 38.3333 38.9167H35.5308C35.0875 38.9167 34.7391 39.2651 34.7391 39.7084C34.7391 39.8984 34.8183 40.0726 34.945 40.2309C35.5941 40.9751 35.9583 41.9092 35.9583 42.8751C35.9583 45.0601 34.185 46.8334 32 46.8334ZM32 18.3334C25.0175 18.3334 19.3333 24.0176 19.3333 31.0001C19.3333 37.9826 25.0175 43.6667 32 43.6667C32.4433 43.6667 32.7916 43.3184 32.7916 42.8751C32.7916 42.6217 32.665 42.4317 32.57 42.3209C31.9208 41.5926 31.5725 40.6584 31.5725 39.7084C31.5725 37.5234 33.3458 35.7501 35.5308 35.7501H38.3333C41.8325 35.7501 44.6666 32.9159 44.6666 29.4167C44.6666 23.3051 38.9825 18.3334 32 18.3334Z" fill="white"/>
<path d="M23.2916 32.5833C24.6033 32.5833 25.6666 31.5199 25.6666 30.2083C25.6666 28.8966 24.6033 27.8333 23.2916 27.8333C21.9799 27.8333 20.9166 28.8966 20.9166 30.2083C20.9166 31.5199 21.9799 32.5833 23.2916 32.5833Z" fill="white"/>
<path d="M28.0416 26.25C29.3533 26.25 30.4166 25.1867 30.4166 23.875C30.4166 22.5633 29.3533 21.5 28.0416 21.5C26.7299 21.5 25.6666 22.5633 25.6666 23.875C25.6666 25.1867 26.7299 26.25 28.0416 26.25Z" fill="white"/>
<path d="M35.9584 26.25C37.2701 26.25 38.3334 25.1867 38.3334 23.875C38.3334 22.5633 37.2701 21.5 35.9584 21.5C34.6467 21.5 33.5834 22.5633 33.5834 23.875C33.5834 25.1867 34.6467 26.25 35.9584 26.25Z" fill="white"/>
<path d="M40.7084 32.5833C42.0201 32.5833 43.0834 31.5199 43.0834 30.2083C43.0834 28.8966 42.0201 27.8333 40.7084 27.8333C39.3967 27.8333 38.3334 28.8966 38.3334 30.2083C38.3334 31.5199 39.3967 32.5833 40.7084 32.5833Z" fill="white"/>
</svg>
