<svg width="63" height="63" viewBox="0 0 63 63" fill="none" xmlns="http://www.w3.org/2000/svg">
<circle cx="31.5" cy="31.5" r="31.5" fill="#FDDB64"/>
<path d="M43.0833 20.9167H39.9167V17.75H24.0833V20.9167H20.9167C19.175 20.9167 17.75 22.3417 17.75 24.0833V25.6667C17.75 29.7042 20.79 32.9975 24.7008 33.4883C25.6983 35.8633 27.8358 37.6525 30.4167 38.175V43.0833H24.0833V46.25H39.9167V43.0833H33.5833V38.175C36.1642 37.6525 38.3017 35.8633 39.2992 33.4883C43.21 32.9975 46.25 29.7042 46.25 25.6667V24.0833C46.25 22.3417 44.825 20.9167 43.0833 20.9167ZM20.9167 25.6667V24.0833H24.0833V30.1317C22.2467 29.4667 20.9167 27.725 20.9167 25.6667ZM32 35.1667C29.3875 35.1667 27.25 33.0292 27.25 30.4167V20.9167H36.75V30.4167C36.75 33.0292 34.6125 35.1667 32 35.1667ZM43.0833 25.6667C43.0833 27.725 41.7533 29.4667 39.9167 30.1317V24.0833H43.0833V25.6667Z" fill="white"/>
</svg>
