<svg width="63" height="63" viewBox="0 0 63 63" fill="none" xmlns="http://www.w3.org/2000/svg">
<circle cx="31.5" cy="31.5" r="31.5" fill="#BAF5D7"/>
<path d="M35.1666 22.5001V19.3334H28.8333V22.5001H35.1666ZM19.3333 25.6667V43.0834H44.6666V25.6667H19.3333ZM44.6666 22.5001C46.4241 22.5001 47.8333 23.9092 47.8333 25.6667V43.0834C47.8333 44.8409 46.4241 46.2501 44.6666 46.2501H19.3333C17.5758 46.2501 16.1666 44.8409 16.1666 43.0834L16.1825 25.6667C16.1825 23.9092 17.5758 22.5001 19.3333 22.5001H25.6666V19.3334C25.6666 17.5759 27.0758 16.1667 28.8333 16.1667H35.1666C36.9241 16.1667 38.3333 17.5759 38.3333 19.3334V22.5001H44.6666Z" fill="white"/>
</svg>
