<svg width="544" height="544" viewBox="0 0 544 544" fill="none" xmlns="http://www.w3.org/2000/svg">
<path d="M266.531 475H170.18C169.287 475 168.441 474.602 167.871 473.915L1.58827 273.415C0.667194 272.304 0.667194 270.696 1.58827 269.585L167.871 69.0849C168.441 68.3977 169.287 68 170.18 68H266.531C269.085 68 270.471 70.9883 268.821 72.938L102.425 269.562C101.479 270.681 101.479 272.319 102.425 273.438L268.821 470.062C270.471 472.012 269.085 475 266.531 475Z" fill="#9C73FF"/>
<path d="M544 72C544 69.7909 542.209 68 540 68H461.546C459.337 68 457.546 69.7908 457.546 72V335.719H500.773H544V72Z" fill="#9C73FF"/>
<path d="M277 318.205C274.791 318.205 272.999 319.988 273 322.197C273.011 341.371 273.309 375.216 279.651 390.764C286.46 407.46 288.795 418.287 308.746 439.971C321.215 452.482 337.009 461.656 354.466 467.494C370.906 474.41 390.706 475 408.5 475C426.294 475 446.094 473.576 462.534 466.66C478.973 459.744 497.335 449.414 509.917 436.635C522.5 423.857 529.868 406.611 535.687 389.096C539.948 376.273 544 353.791 544 335.719H500.773H457.546C457.546 342.962 456.837 350.391 455.952 356.906C455.907 357.237 455.819 357.561 455.695 357.87C453.062 364.422 451.675 369.878 447.755 375.491C447.633 375.665 447.496 375.828 447.346 375.979C442.231 381.123 436.473 385.174 429.813 387.976C423.056 390.818 415.814 392.281 408.5 392.281C401.187 392.281 393.944 390.818 387.187 387.976C380.43 385.133 374.291 380.967 369.119 375.715C363.947 370.462 363.084 364.266 360.285 357.404C358.136 351.652 358.457 332.21 358.586 322.196C358.615 319.987 356.832 318.205 354.623 318.205H277Z" fill="#9C73FF"/>
</svg>
