<svg width="500" height="500" viewBox="0 0 500 500" fill="none" xmlns="http://www.w3.org/2000/svg">
<path d="M410.8 140.07C380.14 107.24 337.34 85.3999 291 83.9999C225 81.9999 191 134 142 158C93 182 59 203 53 250C47 297 52 341 93 363C134 385 159 348 212 350C265 352 297 412 363.5 394C407.25 382.15 439.69 338.73 451.89 296.95C468.59 239.75 449.24 181.25 410.8 140.07Z" fill="#9C73FF"/>
<path opacity="0.7" d="M410.8 140.07C380.14 107.24 337.34 85.3999 291 83.9999C225 81.9999 191 134 142 158C93 182 59 203 53 250C47 297 52 341 93 363C134 385 159 348 212 350C265 352 297 412 363.5 394C407.25 382.15 439.69 338.73 451.89 296.95C468.59 239.75 449.24 181.25 410.8 140.07Z" fill="white"/>
<path d="M151.85 133.66L147.76 121.92H81.47V133.66V142.9V292.93H301.24V133.66H151.85Z" fill="white" stroke="#2E353A" stroke-miterlimit="10"/>
<path d="M297.12 149.23H85.58V283.18H297.12V149.23Z" fill="white" stroke="#2E353A" stroke-miterlimit="10"/>
<path d="M256.92 138.1H151.82V144.53H256.92V138.1Z" fill="white" stroke="#2E353A" stroke-miterlimit="10"/>
<path d="M90.67 137.07L87.64 139.99L90.78 143.36" stroke="#2E353A" stroke-linecap="round" stroke-linejoin="round"/>
<path d="M87.63 139.99H94.37" stroke="#2E353A" stroke-linecap="round" stroke-linejoin="round"/>
<path d="M107.85 137.07L110.88 139.99L107.74 143.36" stroke="#2E353A" stroke-linecap="round" stroke-linejoin="round"/>
<path d="M110.88 139.99H104.15" stroke="#2E353A" stroke-linecap="round" stroke-linejoin="round"/>
<path d="M125.36 139.59C125.169 138.912 124.766 138.312 124.21 137.879C123.654 137.445 122.975 137.2 122.27 137.18C121.798 137.195 121.336 137.322 120.921 137.549C120.507 137.777 120.152 138.099 119.886 138.489C119.62 138.88 119.45 139.328 119.39 139.797C119.33 140.265 119.381 140.742 119.54 141.187C119.699 141.632 119.961 142.033 120.304 142.358C120.647 142.683 121.063 142.922 121.516 143.056C121.969 143.19 122.448 143.214 122.912 143.128C123.377 143.042 123.815 142.847 124.19 142.56" stroke="#2E353A" stroke-linecap="round" stroke-linejoin="round"/>
<path d="M123.32 139.94H125.68V137.13" stroke="#2E353A" stroke-linecap="round" stroke-linejoin="round"/>
<path d="M141.43 138.94L138.63 136.68L135.97 138.94V143.87H141.43V138.94Z" stroke="#2E353A" stroke-linecap="round" stroke-linejoin="round"/>
<path d="M139.69 140.27H137.56V143.69H139.69V140.27Z" fill="#2E353A"/>
<path d="M135.97 138.94L134.37 140.41" stroke="#2E353A" stroke-linecap="round" stroke-linejoin="round"/>
<path d="M141.43 138.94L142.93 140.28" stroke="#2E353A" stroke-linecap="round" stroke-linejoin="round"/>
<path d="M140.42 128L144.68 132.39" stroke="#2E353A" stroke-linecap="round" stroke-linejoin="round"/>
<path d="M144.74 128.07L140.35 132.33" stroke="#2E353A" stroke-linecap="round" stroke-linejoin="round"/>
<path d="M285.98 139.27H294.41" stroke="#2E353A" stroke-linecap="round" stroke-linejoin="round"/>
<path d="M285.98 141.18H294.41" stroke="#2E353A" stroke-linecap="round" stroke-linejoin="round"/>
<path d="M285.98 143.08H294.41" stroke="#2E353A" stroke-linecap="round" stroke-linejoin="round"/>
<path d="M285.98 144.98H294.41" stroke="#2E353A" stroke-linecap="round" stroke-linejoin="round"/>
<path d="M246.49 100.05L242.4 88.3101H176.11V100.05V109.29V259.32H395.88V100.05H246.49Z" fill="white" stroke="#2E353A" stroke-miterlimit="10"/>
<path d="M391.77 115.62H180.23V249.57H391.77V115.62Z" fill="white" stroke="#2E353A" stroke-miterlimit="10"/>
<path d="M351.56 104.49H246.46V110.92H351.56V104.49Z" fill="white" stroke="#2E353A" stroke-miterlimit="10"/>
<path d="M185.31 103.46L182.28 106.38L185.43 109.75" stroke="#2E353A" stroke-linecap="round" stroke-linejoin="round"/>
<path d="M182.28 106.38H189.02" stroke="#2E353A" stroke-linecap="round" stroke-linejoin="round"/>
<path d="M202.5 103.46L205.53 106.38L202.38 109.75" stroke="#2E353A" stroke-linecap="round" stroke-linejoin="round"/>
<path d="M205.53 106.38H198.79" stroke="#2E353A" stroke-linecap="round" stroke-linejoin="round"/>
<path d="M220 106C219.809 105.321 219.407 104.72 218.851 104.285C218.295 103.849 217.615 103.603 216.91 103.58C216.438 103.595 215.975 103.722 215.561 103.949C215.147 104.177 214.792 104.499 214.526 104.889C214.26 105.28 214.09 105.728 214.03 106.197C213.97 106.665 214.021 107.142 214.18 107.587C214.339 108.032 214.601 108.433 214.944 108.758C215.287 109.083 215.703 109.322 216.156 109.456C216.609 109.59 217.088 109.614 217.552 109.528C218.017 109.442 218.455 109.247 218.83 108.96" stroke="#2E353A" stroke-linecap="round" stroke-linejoin="round"/>
<path d="M217.97 106.33H220.32V103.52" stroke="#2E353A" stroke-linecap="round" stroke-linejoin="round"/>
<path d="M236.07 105.33L233.27 103.07L230.61 105.33V110.26H236.07V105.33Z" stroke="#2E353A" stroke-linecap="round" stroke-linejoin="round"/>
<path d="M234.34 106.66H232.21V110.08H234.34V106.66Z" fill="#2E353A"/>
<path d="M230.61 105.33L229.01 106.8" stroke="#2E353A" stroke-linecap="round" stroke-linejoin="round"/>
<path d="M236.07 105.33L237.57 106.67" stroke="#2E353A" stroke-linecap="round" stroke-linejoin="round"/>
<path d="M235.06 94.39L239.32 98.78" stroke="#2E353A" stroke-linecap="round" stroke-linejoin="round"/>
<path d="M239.39 94.4601L235 98.7201" stroke="#2E353A" stroke-linecap="round" stroke-linejoin="round"/>
<path d="M380.63 105.67H389.05" stroke="#2E353A" stroke-linecap="round" stroke-linejoin="round"/>
<path d="M380.63 107.57H389.05" stroke="#2E353A" stroke-linecap="round" stroke-linejoin="round"/>
<path d="M380.63 109.47H389.05" stroke="#2E353A" stroke-linecap="round" stroke-linejoin="round"/>
<path d="M380.63 111.37H389.05" stroke="#2E353A" stroke-linecap="round" stroke-linejoin="round"/>
<path d="M297.79 148.39L293.69 136.65H227.41V148.39V157.62V307.66H447.17V148.39H297.79Z" fill="white" stroke="#2E353A" stroke-miterlimit="10"/>
<path d="M443.06 163.96H231.52V297.91H443.06V163.96Z" fill="white" stroke="#2E353A" stroke-miterlimit="10"/>
<path d="M402.85 152.82H297.75V159.25H402.85V152.82Z" fill="white" stroke="#2E353A" stroke-miterlimit="10"/>
<path d="M236.6 151.79L233.57 154.72L236.72 158.08" stroke="#2E353A" stroke-linecap="round" stroke-linejoin="round"/>
<path d="M233.57 154.72H240.31" stroke="#2E353A" stroke-linecap="round" stroke-linejoin="round"/>
<path d="M253.79 151.79L256.82 154.72L253.68 158.08" stroke="#2E353A" stroke-linecap="round" stroke-linejoin="round"/>
<path d="M256.82 154.72H250.08" stroke="#2E353A" stroke-linecap="round" stroke-linejoin="round"/>
<path d="M271.3 154.32C271.109 153.642 270.706 153.042 270.15 152.609C269.594 152.175 268.915 151.93 268.21 151.91C267.406 151.91 266.636 152.229 266.067 152.798C265.499 153.366 265.18 154.136 265.18 154.94C265.18 155.744 265.499 156.514 266.067 157.083C266.636 157.651 267.406 157.97 268.21 157.97C268.91 157.974 269.589 157.734 270.13 157.29" stroke="#2E353A" stroke-linecap="round" stroke-linejoin="round"/>
<path d="M269.26 154.66H271.62V151.86" stroke="#2E353A" stroke-linecap="round" stroke-linejoin="round"/>
<path d="M287.36 153.67L284.56 151.4L281.9 153.67V158.6H287.36V153.67Z" stroke="#2E353A" stroke-linecap="round" stroke-linejoin="round"/>
<path d="M285.63 155H283.5V158.42H285.63V155Z" fill="#2E353A"/>
<path d="M281.9 153.67L280.3 155.13" stroke="#2E353A" stroke-linecap="round" stroke-linejoin="round"/>
<path d="M287.36 153.67L288.87 155" stroke="#2E353A" stroke-linecap="round" stroke-linejoin="round"/>
<path d="M286.35 142.73L290.61 147.12" stroke="#2E353A" stroke-linecap="round" stroke-linejoin="round"/>
<path d="M290.68 142.79L286.29 147.05" stroke="#2E353A" stroke-linecap="round" stroke-linejoin="round"/>
<path d="M431.92 154H440.35" stroke="#2E353A" stroke-linecap="round" stroke-linejoin="round"/>
<path d="M431.92 155.9H440.35" stroke="#2E353A" stroke-linecap="round" stroke-linejoin="round"/>
<path d="M431.92 157.8H440.35" stroke="#2E353A" stroke-linecap="round" stroke-linejoin="round"/>
<path d="M431.92 159.7H440.35" stroke="#2E353A" stroke-linecap="round" stroke-linejoin="round"/>
<path d="M263.8 231.99H307.88" stroke="#2E353A" stroke-linecap="round" stroke-linejoin="round"/>
<path d="M263.8 237.69H307.88" stroke="#2E353A" stroke-linecap="round" stroke-linejoin="round"/>
<path d="M263.8 243.38H307.88" stroke="#2E353A" stroke-linecap="round" stroke-linejoin="round"/>
<path d="M263.8 249.07H307.88" stroke="#2E353A" stroke-linecap="round" stroke-linejoin="round"/>
<path d="M263.8 254.76H307.88" stroke="#2E353A" stroke-linecap="round" stroke-linejoin="round"/>
<path d="M263.8 260.46H307.88" stroke="#2E353A" stroke-linecap="round" stroke-linejoin="round"/>
<path d="M263.8 266.15H307.88" stroke="#2E353A" stroke-linecap="round" stroke-linejoin="round"/>
<path d="M263.8 271.84H307.88" stroke="#2E353A" stroke-linecap="round" stroke-linejoin="round"/>
<path d="M263.8 277.53H307.88" stroke="#2E353A" stroke-linecap="round" stroke-linejoin="round"/>
<path d="M315.64 231.99H359.71" stroke="#2E353A" stroke-linecap="round" stroke-linejoin="round"/>
<path d="M315.64 237.69H359.71" stroke="#2E353A" stroke-linecap="round" stroke-linejoin="round"/>
<path d="M315.64 243.38H359.71" stroke="#2E353A" stroke-linecap="round" stroke-linejoin="round"/>
<path d="M315.64 249.07H359.71" stroke="#2E353A" stroke-linecap="round" stroke-linejoin="round"/>
<path d="M315.64 254.76H359.71" stroke="#2E353A" stroke-linecap="round" stroke-linejoin="round"/>
<path d="M315.64 260.46H359.71" stroke="#2E353A" stroke-linecap="round" stroke-linejoin="round"/>
<path d="M315.64 266.15H359.71" stroke="#2E353A" stroke-linecap="round" stroke-linejoin="round"/>
<path d="M315.64 271.84H359.71" stroke="#2E353A" stroke-linecap="round" stroke-linejoin="round"/>
<path d="M315.64 277.53H359.71" stroke="#2E353A" stroke-linecap="round" stroke-linejoin="round"/>
<path d="M315.64 186.91H359.71" stroke="#2E353A" stroke-linecap="round" stroke-linejoin="round"/>
<path d="M315.64 192.6H359.71" stroke="#2E353A" stroke-linecap="round" stroke-linejoin="round"/>
<path d="M315.64 198.29H359.71" stroke="#2E353A" stroke-linecap="round" stroke-linejoin="round"/>
<path d="M315.64 203.98H359.71" stroke="#2E353A" stroke-linecap="round" stroke-linejoin="round"/>
<path d="M315.64 209.68H359.71" stroke="#2E353A" stroke-linecap="round" stroke-linejoin="round"/>
<path d="M315.64 215.37H359.71" stroke="#2E353A" stroke-linecap="round" stroke-linejoin="round"/>
<path d="M315.64 221.06H359.71" stroke="#2E353A" stroke-linecap="round" stroke-linejoin="round"/>
<path d="M315.64 226.75H359.71" stroke="#2E353A" stroke-linecap="round" stroke-linejoin="round"/>
<path d="M367.26 231.99H411.34" stroke="#2E353A" stroke-linecap="round" stroke-linejoin="round"/>
<path d="M367.26 237.69H411.34" stroke="#2E353A" stroke-linecap="round" stroke-linejoin="round"/>
<path d="M367.26 243.38H411.34" stroke="#2E353A" stroke-linecap="round" stroke-linejoin="round"/>
<path d="M367.26 249.07H411.34" stroke="#2E353A" stroke-linecap="round" stroke-linejoin="round"/>
<path d="M367.26 254.76H411.34" stroke="#2E353A" stroke-linecap="round" stroke-linejoin="round"/>
<path d="M367.26 260.46H411.34" stroke="#2E353A" stroke-linecap="round" stroke-linejoin="round"/>
<path d="M367.26 266.15H411.34" stroke="#2E353A" stroke-linecap="round" stroke-linejoin="round"/>
<path d="M367.26 271.84H411.34" stroke="#2E353A" stroke-linecap="round" stroke-linejoin="round"/>
<path d="M367.26 277.53H411.34" stroke="#2E353A" stroke-linecap="round" stroke-linejoin="round"/>
<path d="M293.28 196C293.502 195.325 293.616 194.62 293.62 193.91C293.62 191.32 291 191.17 288.41 191.17H287.77V190.56H299V191.17C296.07 191.17 295.05 193.04 294.1 195.81L288.1 213.72C287.64 215.05 287.26 216.04 285.85 216.04H285.74L280.5 198.9L275.56 213.69C275.1 215.02 274.72 216.01 273.32 216.01H273.2L265.52 191.14H262.82V190.53H272.71V191.14H269.89L275.6 210.76H275.83L280.12 197.68L278.12 191.14H275.42V190.53H285.3V191.14H282.49L288.19 210.76H288.42L293.28 196Z" fill="white"/>
<path d="M411.76 184.86H366.4V225.86H411.76V184.86Z" fill="white" stroke="#2E353A" stroke-linecap="round" stroke-linejoin="round"/>
<path d="M411.76 202C410.236 202.095 408.721 202.309 407.23 202.64C400.34 204.14 398.54 214.03 390.75 214.03C383.85 214.03 383.26 204.74 373.37 203.54C370.964 203.159 368.499 203.595 366.37 204.78V225.87H411.73L411.76 202Z" fill="#2E353A" stroke="#2E353A" stroke-linecap="round" stroke-linejoin="round"/>
<path d="M381.46 194.24C381.46 195.247 381.161 196.231 380.602 197.068C380.043 197.905 379.248 198.557 378.318 198.943C377.388 199.328 376.364 199.429 375.377 199.232C374.39 199.036 373.483 198.551 372.771 197.839C372.059 197.127 371.574 196.22 371.378 195.233C371.181 194.246 371.282 193.222 371.667 192.292C372.053 191.362 372.705 190.567 373.542 190.008C374.379 189.449 375.363 189.15 376.37 189.15C377.72 189.15 379.015 189.686 379.969 190.641C380.924 191.595 381.46 192.89 381.46 194.24Z" fill="white" stroke="#2E353A" stroke-linecap="round" stroke-linejoin="round"/>
<path d="M183.58 191.77C183.58 191.77 178.02 193.77 177.15 199.37C176.28 204.97 166.34 202.88 166.34 202.88C166.34 202.88 166.34 185.93 168.97 183.01C171.6 180.09 183.58 191.77 183.58 191.77Z" fill="white" stroke="#2E353A" stroke-miterlimit="10"/>
<path d="M186.5 169.28C186.5 169.28 188.25 176.58 189.13 177.17C190.01 177.76 192.63 178.92 192.34 179.79C191.667 181.028 190.884 182.203 190 183.3C190 183.3 190.5 190.86 189.62 191.73C188.74 192.6 187.08 193.23 183.62 193.23C180.16 193.23 176.02 192.07 174.85 190.31L172.51 186.81C172.51 186.81 170.51 186.81 170.51 183.89C170.51 180.97 169.05 177.17 172.51 173.07C175.97 168.97 183.28 166.94 186.5 169.28Z" fill="white" stroke="#2E353A" stroke-miterlimit="10"/>
<path d="M187 178.38C187.12 179.17 187 179.84 186.69 179.89C186.38 179.94 186.08 179.32 185.96 178.54C185.84 177.76 185.96 177.07 186.26 177.03C186.56 176.99 186.86 177.59 187 178.38Z" fill="#2E353A"/>
<path d="M184 176C184 176 185.06 173.24 187 174.3" stroke="#2E353A" stroke-linecap="round" stroke-linejoin="round"/>
<path d="M165.75 196.45C165.75 196.45 168.38 194.99 173.35 197.03C178.32 199.07 183.87 202.03 184.74 202.29C185.61 202.55 187.08 203.46 185.04 204.05C182.545 204.656 180.002 205.044 177.44 205.21C176.27 205.21 169.84 202 167.51 202H164C164 202 163.42 197.33 165.75 196.45Z" fill="#9C73FF" stroke="#2E353A" stroke-miterlimit="10"/>
<path d="M181.24 207C177.223 204.062 172.65 201.973 167.8 200.86C159.91 199.11 152.61 200.57 147.64 202.03C142.67 203.49 138.29 204.66 136.24 207.03C134.19 209.4 112.58 238.87 107.32 246.76C102.06 254.65 98.16 273.76 98.16 273.76C98.487 274.25 98.9183 274.662 99.4231 274.967C99.9279 275.271 100.494 275.46 101.08 275.52C102.83 275.52 102.94 272.2 102.94 272.2C104.656 271.263 106.229 270.084 107.61 268.7C109.95 266.36 112.87 252.92 116.67 249.7C120.47 246.48 142.67 226.33 142.67 226.33C142.67 226.33 147.05 238.02 147.05 242.69C147.05 247.36 145.3 250.58 140.63 259.05C135.96 267.52 131.57 271.91 129.23 280.97C126.89 290.03 125.14 301.97 125.14 301.97C125.14 301.97 115.79 334.06 114 339C112.21 343.94 99.39 355.07 97 363.54C94.61 372.01 88.62 403 85.7 406.23C82.78 409.46 76.93 410.61 72.84 415C68.75 419.39 69.63 420.55 74.59 420.26C79.55 419.97 84.82 417.63 88 417C91.18 416.37 93 416.71 93.85 413.5C94.7 410.29 91.85 409.11 94.14 403.56C96.43 398.01 111.96 365.56 118.68 356.23C125.4 346.9 132.12 335.78 134.75 329.64C137.38 323.5 146.15 301.88 147.02 299.25C147.89 296.62 147.9 295.75 149.02 298.67C150.14 301.59 157.28 332 157 339.32C156.72 346.64 150.57 359.19 153.2 367.66C155.83 376.13 163.43 398.34 164.59 404.48C165.75 410.62 163.43 414.7 164.59 416.48C165.75 418.26 176.87 419.98 179.79 420.28C182.71 420.58 190.31 421.44 190.89 419.4C191.47 417.36 185.63 417.06 181.83 412.97C178.69 409.59 173.65 404.5 171.9 396.9C170.15 389.3 167.8 363.28 169 356C170.2 348.72 171.63 327.95 171.92 324.44C172.21 320.93 175.13 306.62 173.09 292.59C171.05 278.56 169 257.81 169 257.81C169 257.81 170.75 246.7 171.33 245.81C171.91 244.92 178.64 235.87 178.93 232.37C179.022 229.435 178.828 226.498 178.35 223.6C178.35 223.6 199.09 217.17 210.49 213.08C221.89 208.99 247.35 189.89 249.98 187.55C251.16 186.55 250.34 184.21 251.49 182.95C252.92 181.38 254.02 180.07 254.02 180.07L252.27 177.15C252.27 177.15 238.83 183.87 226.56 190.88C218.632 195.475 210.43 199.58 202 203.17C197.89 204.92 182.11 207 181.24 207Z" fill="white" stroke="#2E353A" stroke-miterlimit="10"/>
<path d="M88.68 407.45C86.09 407.45 82.2 409.53 82.2 409.53L82.89 408.42C79.89 410.27 75.89 411.76 72.89 415C68.8 419.38 69.68 420.55 74.64 420.26C79.6 419.97 84.82 417.63 88 417C91.18 416.37 93 416.71 93.85 413.5C94.41 411.42 93.4 410.19 93.24 408.09C91.755 407.676 90.2216 407.461 88.68 407.45Z" fill="white" stroke="#2E353A" stroke-miterlimit="10"/>
<path d="M93.84 413.67C91.3388 412.875 88.6988 412.612 86.09 412.9C81.111 413.495 76.2242 414.701 71.54 416.49C69.03 419.65 70.25 420.49 74.54 420.26C79.54 419.96 84.77 417.63 87.98 417.04C91.19 416.45 93 416.73 93.84 413.67Z" fill="white" stroke="#2E353A" stroke-miterlimit="10"/>
<path d="M93 415.45C92 415.12 89.73 414.7 84.83 415.23C79.807 415.772 74.9116 417.158 70.35 419.33C70.64 420.17 72.1 420.4 74.63 420.26C79.63 419.96 84.86 417.63 88.07 417.04C90.38 416.61 92 416.65 93 415.45Z" fill="white" stroke="#2E353A" stroke-miterlimit="10"/>
<g style="mix-blend-mode:multiply" opacity="0.5">
<path d="M107.5 376L102 376.72C102 376.72 94.75 394.72 92.25 401.22C89.75 407.72 88.68 411 86.09 412.9C84.02 414.37 75.5 415.15 70.87 417.43C69.35 419.81 70.72 420.48 74.59 420.26C79.59 419.96 84.82 417.63 88.03 417.04C91.24 416.45 93.03 416.75 93.88 413.54C94.73 410.33 91.88 409.15 94.17 403.6C95.55 400.33 101.48 387.74 107.5 376Z" fill="#9C73FF"/>
</g>
<path d="M181.82 413C180.54 411.62 178.95 410 177.39 408C176.392 408.831 175.653 409.932 175.26 411.17C175.26 411.17 168.52 410.17 166.19 408.84C165.792 408.616 165.364 408.448 164.92 408.34C164.92 412.4 163.68 415.18 164.58 416.55C165.75 418.3 176.86 420.05 179.78 420.35C182.7 420.65 190.3 421.51 190.88 419.47C191.46 417.43 185.62 417 181.82 413Z" fill="white" stroke="#2E353A" stroke-miterlimit="10"/>
<path d="M190.88 419.38C190.917 419.255 190.927 419.124 190.91 418.994C190.892 418.865 190.848 418.741 190.78 418.63C187.6 419.37 182.88 418.63 176.3 417.3L164.3 414.89C164.25 415.433 164.362 415.979 164.62 416.46C165.79 418.21 176.9 419.96 179.82 420.26C182.74 420.56 190.3 421.42 190.88 419.38Z" fill="white" stroke="#2E353A" stroke-miterlimit="10"/>
<g style="mix-blend-mode:multiply" opacity="0.5">
<path d="M181.82 413C178.68 409.62 173.64 404.53 171.89 396.93C170.764 390.919 169.976 384.849 169.53 378.75L165.88 380.75C165.88 380.75 167.88 398.28 169.88 403.29C171.88 408.3 183.41 415.81 184.88 418.81C185.031 419.097 185.121 419.412 185.145 419.735C185.169 420.059 185.127 420.384 185.02 420.69C187.8 420.79 190.51 420.59 190.85 419.4C191.46 417.33 185.62 417 181.82 413Z" fill="#9C73FF"/>
</g>
<g style="mix-blend-mode:multiply" opacity="0.5">
<path d="M139.83 211C140.3 213.247 141.326 215.34 142.814 217.087C144.303 218.834 146.206 220.18 148.35 221C155.86 224 168.35 222 174.89 217.49C181.43 212.98 177.44 205.24 177.44 205.24L174.39 200.96C174.39 200.96 158.36 215.46 139.83 211Z" fill="#9C73FF"/>
</g>
<g style="mix-blend-mode:multiply" opacity="0.5">
<path d="M107.61 268.62C109.95 266.28 112.87 252.84 116.67 249.62C120.21 246.62 139.67 228.94 142.36 226.53L139.83 221.47C134.077 226.003 128.724 231.021 123.83 236.47C116.31 244.99 107.3 250.47 107.83 255.47C108.36 260.47 102.99 272.07 102.99 272.07C104.686 271.145 106.241 269.983 107.61 268.62Z" fill="#9C73FF"/>
</g>
<g style="mix-blend-mode:multiply" opacity="0.5">
<path d="M200.93 214C200.93 214 208.45 204.48 206.93 206C205.41 207.52 201.43 213 194.41 215C187.39 217 170.87 222.51 168.41 224C165.95 225.49 157.41 224 159.9 226.51C162.088 229.006 163.784 231.894 164.9 235.02C165.41 236.52 163.4 240.02 162.9 243.02C162.4 246.02 159.98 253.95 162.9 256.02C164.817 257.144 166.894 257.97 169.06 258.47C169.06 258.04 169 257.8 169 257.8C169 257.8 170.75 246.69 171.33 245.8C171.91 244.91 178.64 235.86 178.93 232.36C179.022 229.425 178.828 226.487 178.35 223.59C178.35 223.59 199.09 217.16 210.49 213.07C221.89 208.98 247.35 189.88 249.98 187.54C251.16 186.54 250.34 184.2 251.49 182.94C251.49 182.94 236.02 192.39 224.49 201.41C217.414 206.922 209.445 211.18 200.93 214Z" fill="#9C73FF"/>
</g>
<path d="M178.32 223.62L168.38 227.42" stroke="#2E353A" stroke-linecap="round" stroke-linejoin="round"/>
<path d="M175.98 224.79L168.38 232.68" stroke="#2E353A" stroke-linecap="round" stroke-linejoin="round"/>
<path d="M142.67 226.25L138.22 216.53" stroke="#2E353A" stroke-linecap="round" stroke-linejoin="round"/>
<path d="M190.25 167.58C187.613 170.541 184.643 173.188 181.4 175.47C176.24 179.04 173.47 177.26 174.28 183.93C175.09 190.6 180.74 200.81 175.82 208.77C170.9 216.73 161.63 222.85 145.49 215.97C129.35 209.09 127.28 191.97 134.41 185.24C141.54 178.51 147.66 178.04 151.13 172.61C154.6 167.18 152.3 158.05 161.34 154.9C170.38 151.75 178.08 154.63 180.4 154.35C182.72 154.07 182.4 148.81 189.66 150.58C196.92 152.35 197.29 165 190.25 167.58Z" fill="#2E353A" stroke="#2E353A" stroke-miterlimit="10"/>
<path d="M189.42 156.48C189.42 156.48 195.87 156.23 195.13 160.7C194.39 165.17 192.89 165.17 185.19 166.91C177.49 168.65 169.05 168.91 167.32 176.34C165.59 183.77 170.79 195.71 170.32 204.65C169.85 213.59 164.32 216.82 158.4 217.56" stroke="white" stroke-width="0.5" stroke-linecap="round" stroke-linejoin="round"/>
<path d="M174.77 179.32C174.77 179.32 169.3 182.8 169.55 194.72" stroke="white" stroke-width="0.5" stroke-linecap="round" stroke-linejoin="round"/>
<path d="M184.45 163.18C184.45 163.18 174.77 158.96 168.31 164.42C161.85 169.88 163.84 176.84 161.36 184.29C158.88 191.74 152.42 203.41 142.73 206.14C133.04 208.87 130.07 195.46 134.29 193.48C138.51 191.5 142.98 194.48 141.29 198.48" stroke="white" stroke-width="0.5" stroke-linecap="round" stroke-linejoin="round"/>
<path d="M100.28 283.82C100.28 283.82 100.88 288.41 100.48 290.01L100.08 291.61C100.08 291.61 98.88 292.61 98.68 284.42C98.68 284.42 99.48 282.62 100.28 283.82Z" fill="white" stroke="#2E353A" stroke-linecap="round" stroke-linejoin="round"/>
<path d="M99.08 286.22C99.08 286.22 99.68 290.81 99.28 292.41L98.88 294.01C98.88 294.01 97.69 295.01 97.49 286.82C97.49 286.82 98.29 285 99.08 286.22Z" fill="white" stroke="#2E353A" stroke-linecap="round" stroke-linejoin="round"/>
<path d="M98.09 287.82C98.09 287.82 98.68 292.41 98.29 294.01L97.89 295.6C97.89 295.6 96.69 296.6 96.49 288.41C96.49 288.41 97.29 286.62 98.09 287.82Z" fill="white" stroke="#2E353A" stroke-linecap="round" stroke-linejoin="round"/>
<path d="M102.08 275C103.355 276.522 104.428 278.202 105.27 280C106.27 282.39 107.87 284.39 109.07 285C110.27 285.61 110.86 286.4 108.87 286.4C106.88 286.4 106.47 284.6 105.27 284.2C104.026 283.923 102.754 283.789 101.48 283.8C100.338 284.822 99.3896 286.042 98.68 287.4C98.09 288.99 97.29 289.4 97.29 291.79C97.29 294.18 96.69 297.79 96.09 295.98C95.3105 293.462 95.0386 290.814 95.29 288.19C95.69 286 97.29 276.41 97.49 275.62C97.6757 274.941 97.8994 274.274 98.16 273.62C98.16 273.62 99.88 275.64 102.08 275Z" fill="white" stroke="#2E353A" stroke-linecap="round" stroke-linejoin="round"/>
<path d="M101.48 283.82C101.804 283.25 102.006 282.619 102.075 281.967C102.144 281.315 102.077 280.655 101.88 280.03" stroke="#2E353A" stroke-linecap="round" stroke-linejoin="round"/>
<path d="M143.38 253.92C142.6 255.39 141.69 257.04 140.63 258.97C135.95 267.45 131.57 271.83 129.23 280.89C126.89 289.95 125.14 301.89 125.14 301.89C125.14 301.89 115.79 334.06 114 339C112.21 343.94 99.39 355.07 97 363.54C96.22 366.38 95 371.76 93.63 377.76C95.6123 377.092 97.7472 377.02 99.77 377.553C101.793 378.086 103.615 379.201 105.01 380.76C109.93 370.97 115.33 360.85 118.62 356.27C125.34 346.92 132.06 335.82 134.69 329.68C137.32 323.54 146.09 301.92 146.96 299.29C147.83 296.66 147.84 295.79 148.96 298.71C150.08 301.63 157.28 332 157 339.32C156.72 346.64 150.57 359.19 153.2 367.66C154.6 372.17 157.41 380.57 159.9 388.37C163.434 388.359 166.952 387.898 170.37 387C169.1 376.21 168.13 361.27 168.97 356C170.14 348.69 171.6 327.95 171.89 324.44C172.18 320.93 175.1 306.62 173.06 292.59C171.02 278.56 169 257.81 169 257.81C169 257.81 156.55 252.56 143.38 253.92Z" fill="#2E353A" stroke="#2E353A" stroke-miterlimit="10"/>
<path d="M147.77 298.05L140.84 292.79" stroke="white" stroke-width="0.5" stroke-linecap="round" stroke-linejoin="round"/>
<path d="M165.8 258.12C165.8 258.12 169.12 275.31 170.51 289.46C171.9 303.61 168.57 331.06 169.12 337.99C169.67 344.92 166.07 354.9 165.8 364.06C165.767 371.561 166.138 379.059 166.91 386.52" stroke="white" stroke-width="0.5" stroke-linecap="round" stroke-linejoin="round"/>
<path d="M95.64 377.37C95.64 377.37 100.07 360.17 104.79 352.96C107.328 349.003 110.106 345.206 113.11 341.59" stroke="white" stroke-width="0.5" stroke-linecap="round" stroke-linejoin="round"/>
<path d="M280.18 176.81C280.46 176.67 280.32 176.11 280.18 175.62C279.946 175.395 279.688 175.197 279.41 175.03L269.11 172.6C269.11 172.6 269.11 172.43 271.4 172.14C273.69 171.85 276.8 172.8 277.95 172.98C280.74 173.44 279.95 171.82 279.95 171.82C279.95 171.82 272.95 169.48 271.48 169.48C270.01 169.48 266.69 169.94 266.69 169.94C266.69 169.94 269.43 167.14 268.85 165.68C268.27 164.22 264.76 168.31 261.85 170.06C258.94 171.81 252.25 177.17 252.25 177.17L253.97 180.29H256.8C259.65 180.29 260.21 179.45 261.65 179.14L262.34 178.99H262.43L267.74 178.48C267.74 178.48 269.82 179.25 270.98 179.77C272.434 180.302 273.972 180.566 275.52 180.55C276.95 180.55 270.73 177.96 270.73 177.96C270.73 177.96 274.36 178.96 275.91 179.25C277.158 179.478 278.446 179.251 279.54 178.61C280.45 178.09 277.6 177.05 275.91 176.92C274.745 176.769 273.597 176.511 272.48 176.15C272.59 176.15 271.39 175.62 271.48 175.62C273.18 175.64 279.67 177.08 280.18 176.81Z" stroke="#2E353A" stroke-linecap="round" stroke-linejoin="round"/>
<path d="M271.49 175.64C270.518 175.261 269.514 174.969 268.49 174.77" stroke="#2E353A" stroke-linecap="round" stroke-linejoin="round"/>
<path d="M270.72 178C269.916 177.461 269.05 177.021 268.14 176.69" stroke="#2E353A" stroke-linecap="round" stroke-linejoin="round"/>
<g style="mix-blend-mode:multiply" opacity="0.5">
<path d="M144.22 230.69L144.34 230.48L143.77 229.33L144.22 230.69Z" fill="#9C73FF"/>
</g>
</svg>
